<svg version="1.1" viewBox="0.0 0.0 1280.0 960.0" fill="none" stroke="none" stroke-linecap="square" stroke-miterlimit="10" xmlns:xlink="http://www.w3.org/1999/xlink" xmlns="http://www.w3.org/2000/svg"><clipPath id="p.0"><path d="m0 0l1280.0 0l0 960.0l-1280.0 0l0 -960.0z" clip-rule="nonzero"/></clipPath><g clip-path="url(#p.0)"><path fill="#000000" fill-opacity="0.0" d="m0 0l1280.0 0l0 960.0l-1280.0 0z" fill-rule="evenodd"/><path fill="#000000" fill-opacity="0.0" d="m199.80708 10.0l1031.0865 0l0 197.76378l-1031.0865 0z" fill-rule="evenodd"/><path fill="#ffffff" d="m275.85397 168.44374q-3.6875 2.71875 -9.046875 4.078125q-5.359375 1.359375 -11.281265 1.359375q-15.359375 0 -23.765625 -7.84375q-8.390625 -7.84375 -8.390625 -23.03125l0 -35.359375l-13.28125 0l0 -19.203125l13.28125 0l0 -20.96875l24.953125 0l0 20.96875l21.437515 0l0 19.203125l-21.437515 0l0 35.03125q0 5.4375 2.796875 8.40625q2.8125 2.953125 7.9218903 2.953125q5.921875 0 10.078125 -3.203125l6.734375 17.609375zm48.787537 -83.203125q20.0 0 30.71875 9.53125q10.734375 9.515625 10.734375 28.703125l0 49.125l-23.375 0l0 -10.71875q-7.03125 12.0 -26.234375 12.0q-9.921875 0 -17.203125 -3.359375q-7.28125 -3.359375 -11.125 -9.28125q-3.828125 -5.921875 -3.828125 -13.4375q0 -12.0 9.03125 -18.875q9.046875 -6.890625 27.921875 -6.890625l19.84375 0q0 -8.15625 -4.96875 -12.546875q-4.953125 -4.40625 -14.875 -4.40625q-6.875 0 -13.515625 2.15625q-6.640625 2.15625 -11.28125 5.84375l-8.953125 -17.4375q7.03125 -4.96875 16.875 -7.6875q9.84375 -2.71875 20.234375 -2.71875zm-1.921875 71.84375q6.40625 0 11.359375 -2.953125q4.96875 -2.96875 7.046875 -8.734375l0 -8.796875l-17.125 0q-15.359375 0 -15.359375 10.078125q0 4.796875 3.765625 7.609375q3.765625 2.796875 10.3125 2.796875zm65.92316 -103.203125l24.96875 0l0 118.71875l-24.96875 0l0 -118.71875zm132.48813 76.0q0 0.484375 -0.484375 6.71875l-65.12497 0q1.765625 8.0 8.328125 12.640625q6.5625 4.640625 16.3125 4.640625q6.71875 0 11.921875 -2.0q5.203125 -2.0 9.6875 -6.328125l13.2812195 14.40625q-12.1718445 13.921875 -35.53122 13.921875q-14.546875 0 -25.75 -5.671875q-11.203125 -5.6875 -17.28125 -15.765625q-6.078125 -10.078125 -6.078125 -22.890625q0 -12.640625 6.0 -22.796875q6.0 -10.15625 16.46875 -15.828125q10.484375 -5.6875 23.453125 -5.6875q12.640625 0 22.875 5.4375q10.234375 5.4375 16.078094 15.609375q5.84375 10.15625 5.84375 23.59375zm-44.640594 -25.765625q-8.484375 0 -14.25 4.8125q-5.75 4.796875 -7.03125 13.109375l42.390625 0q-1.265625 -8.15625 -7.03125 -13.03125q-5.765625 -4.890625 -14.078125 -4.890625zm113.60068 -18.875q16.0 0 25.828125 9.609375q9.84375 9.59375 9.84375 28.46875l0 49.28125l-24.953125 0l0 -45.4375q0 -10.25 -4.484375 -15.28125q-4.484375 -5.046875 -12.953125 -5.046875q-9.4375 0 -15.046875 5.84375q-5.59375 5.84375 -5.59375 17.359375l0 42.5625l-24.96875 0l0 -86.078125l23.84375 0l0 10.078125q4.953125 -5.4375 12.3125 -8.390625q7.375 -2.96875 16.171875 -2.96875zm113.76318 83.203125q-3.6875 2.71875 -9.046875 4.078125q-5.359375 1.359375 -11.28125 1.359375q-15.359375 0 -23.765625 -7.84375q-8.390625 -7.84375 -8.390625 -23.03125l0 -35.359375l-13.28125 0l0 -19.203125l13.28125 0l0 -20.96875l24.953125 0l0 20.96875l21.4375 0l0 19.203125l-21.4375 0l0 35.03125q0 5.4375 2.796875 8.40625q2.8125 2.953125 7.921875 2.953125q5.921875 0 10.078125 -3.203125l6.734375 17.609375z" fill-rule="nonzero"/><path fill="#ffffff" d="m766.89166 86.19374q12.46875 0 22.3125 5.453125q9.84375 5.4375 15.4375 15.359375q5.609375 9.90625 5.609375 22.875q0 12.953125 -5.609375 22.953125q-5.59375 10.0 -15.4375 15.453125q-9.84375 5.4375 -22.3125 5.4375q-8.796875 0 -16.078125 -3.03125q-7.28125 -3.046875 -12.25 -9.140625l0 11.046875l-19.03125 0l0 -118.71875l20.0 0l0 43.671875q5.109375 -5.59375 12.0625 -8.46875q6.96875 -2.890625 15.296875 -2.890625zm-2.25 70.40625q11.046875 0 18.15625 -7.359375q7.125 -7.359375 7.125 -19.359375q0 -12.0 -7.125 -19.359375q-7.109375 -7.359375 -18.15625 -7.359375q-7.1875 0 -12.953125 3.28125q-5.765625 3.28125 -9.125 9.359375q-3.359375 6.078125 -3.359375 14.078125q0 8.0 3.359375 14.078125q3.359375 6.078125 9.125 9.359375q5.765625 3.28125 12.953125 3.28125zm103.04132 17.125q-12.953125 0 -23.359375 -5.59375q-10.390625 -5.609375 -16.234375 -15.609375q-5.84375 -10.0 -5.84375 -22.640625q0 -12.640625 5.84375 -22.5625q5.84375 -9.921875 16.234375 -15.515625q10.40625 -5.609375 23.359375 -5.609375q13.125 0 23.515625 5.609375q10.40625 5.59375 16.25 15.515625q5.84375 9.921875 5.84375 22.5625q0 12.640625 -5.84375 22.640625q-5.84375 10.0 -16.25 15.609375q-10.390625 5.59375 -23.515625 5.59375zm0 -17.125q11.046875 0 18.234375 -7.359375q7.203125 -7.359375 7.203125 -19.359375q0 -12.0 -7.203125 -19.359375q-7.1875 -7.359375 -18.234375 -7.359375q-11.03125 0 -18.15625 7.359375q-7.125 7.359375 -7.125 19.359375q0 12.0 7.125 19.359375q7.125 7.359375 18.15625 7.359375zm97.45007 -70.40625q18.875 0 28.875 9.046875q10.0 9.046875 10.0 27.28125l0 50.078125l-18.875 0l0 -10.40625q-3.6875 5.609375 -10.484375 8.578125q-6.796875 2.953125 -16.40625 2.953125q-9.59375 0 -16.796875 -3.28125q-7.203125 -3.28125 -11.125 -9.125q-3.90625 -5.84375 -3.90625 -13.203125q0 -11.515625 8.546875 -18.46875q8.5625 -6.96875 26.96875 -6.96875l22.078125 0l0 -1.28125q0 -8.953125 -5.359375 -13.75q-5.359375 -4.8125 -15.921875 -4.8125q-7.203125 0 -14.171875 2.25q-6.953125 2.234375 -11.75 6.234375l-7.84375 -14.5625q6.71875 -5.109375 16.15625 -7.828125q9.453125 -2.734375 20.015625 -2.734375zm-2.71875 72.96875q7.515625 0 13.34375 -3.4375q5.84375 -3.4375 8.25 -9.84375l0 -9.921875l-20.640625 0q-17.28125 0 -17.28125 11.359375q0 5.4375 4.3125 8.640625q4.328125 3.203125 12.015625 3.203125zm86.22949 -59.515625q8.640625 -13.453125 30.40625 -13.453125l0 19.046875q-2.5625 -0.484375 -4.640625 -0.484375q-11.6875 0 -18.25 6.8125q-6.546875 6.796875 -6.546875 19.59375l0 41.4375l-20.0 0l0 -85.4375l19.03125 0l0 12.484375zm131.8407 -45.765625l0 118.71875l-19.203125 0l0 -11.046875q-4.953125 6.09375 -12.234375 9.140625q-7.28125 3.03125 -16.078125 3.03125q-12.328125 0 -22.171875 -5.4375q-9.828125 -5.453125 -15.4375 -15.453125q-5.59375 -10.0 -5.59375 -22.953125q0 -12.96875 5.59375 -22.875q5.609375 -9.921875 15.4375 -15.359375q9.84375 -5.453125 22.171875 -5.453125q8.484375 0 15.515625 2.890625q7.046875 2.875 12.0 8.640625l0 -43.84375l20.0 0zm-45.109375 102.71875q7.1875 0 12.953125 -3.28125q5.765625 -3.28125 9.125 -9.359375q3.359375 -6.078125 3.359375 -14.078125q0 -8.0 -3.359375 -14.078125q-3.359375 -6.078125 -9.125 -9.359375q-5.765625 -3.28125 -12.953125 -3.28125q-7.203125 0 -12.96875 3.28125q-5.765625 3.28125 -9.125 9.359375q-3.359375 6.078125 -3.359375 14.078125q0 8.0 3.359375 14.078125q3.359375 6.078125 9.125 9.359375q5.765625 3.28125 12.96875 3.28125z" fill-rule="nonzero"/><path fill="#ffffff" d="m49.106316 48.230972l67.93701 0l0 133.98425l-67.93701 0z" fill-rule="evenodd"/><path fill="#ffffff" d="m125.20238 119.38511l67.93701 0l0 62.83465l-67.93701 0z" fill-rule="evenodd"/><path fill="#ffffff" d="m125.20238 48.230972l67.93701 0l0 62.83465l-67.93701 0z" fill-rule="evenodd"/></g></svg>