<svg width="515" height="90" xmlns="http://www.w3.org/2000/svg">
 <clipPath id="p.0">
  <path id="svg_1" clip-rule="nonzero" d="m0,0l1280,0l0,960l-1280,0l0,-960z"/>
 </clipPath>

 <g>
  <title>background</title>
  <rect fill="none" id="canvas_background" height="92" width="517" y="-1" x="-1"/>
 </g>
 <g>
  <title>Layer 1</title>
  <g id="svg_2" clip-path="url(#p.0)">
   <path id="svg_3" fill-rule="evenodd" d="m0,0l1280,0l0,960l-1280,0l0,-960z" fill-opacity="0" fill="#000000"/>
   <path id="svg_4" fill-rule="evenodd" d="m65.40945,-13.490813l470.58267,0l0,118.99213l-470.58267,0l0,-118.99213z" fill-opacity="0" fill="#000000"/>
   <path id="svg_5" fill-rule="nonzero" d="m79.61257,19.746681l11.921875,-1.921875l0,12.40625l14.3125,0l0,9.921875l-14.3125,0l0,14.796875q0,3.765625 1.3125,6q1.328125,2.234375 5.328125,2.234375q1.921875,0 3.953125,-0.359375q2.046875,-0.359375 3.71875,-1l1.6875,9.28125q-2.171875,0.890625 -4.8125,1.515625q-2.625,0.640625 -6.46875,0.640625q-4.890625,0 -8.09375,-1.3125q-3.1875,-1.328125 -5.109375,-3.6875q-1.921875,-2.359375 -2.6875,-5.71875q-0.75,-3.359375 -0.75,-7.4375l0,-35.359375zm52.004356,44.25q1.75,0 3.34375,-0.078125q1.609375,-0.09375 2.5625,-0.25l0,-9.046875q-0.71875,-0.15625 -2.15625,-0.3125q-1.4375,-0.15625 -2.640625,-0.15625q-1.671875,0 -3.15625,0.203125q-1.484375,0.1875 -2.609383,0.75q-1.109375,0.5625 -1.75,1.53125q-0.640625,0.953125 -0.640625,2.390625q0,2.796875 1.875,3.890625q1.890633,1.078125 5.171883,1.078125zm-0.96875,-34.890625q5.28125,0 8.796875,1.203125q3.53125,1.203125 5.640625,3.453125q2.125,2.234375 3,5.4375q0.890625,3.1875 0.890625,7.109375l0,24.796875q-2.5625,0.5625 -7.125,1.3125q-4.5625,0.765625 -11.046875,0.765625q-4.078133,0 -7.406258,-0.71875q-3.3125,-0.71875 -5.71875,-2.359375q-2.390625,-1.640625 -3.671875,-4.28125q-1.28125,-2.640625 -1.28125,-6.46875q0,-3.6875 1.484375,-6.25q1.484375,-2.5625 3.953125,-4.078125q2.484375,-1.515625 5.6875,-2.1875q3.203125,-0.6875 6.640633,-0.6875q2.3125,0 4.109375,0.203125q1.8125,0.1875 2.921875,0.515625l0,-1.125q0,-3.03125 -1.84375,-4.875q-1.828125,-1.84375 -6.390625,-1.84375q-3.046883,0 -6.000008,0.4375q-2.953125,0.4375 -5.125,1.25l-1.515625,-9.609375q1.046875,-0.3125 2.59375,-0.671875q1.5625,-0.359375 3.40625,-0.640625q1.84375,-0.28125 3.875,-0.484375q2.046883,-0.203125 4.125008,-0.203125zm45.92746,44q-5.203125,-0.078125 -8.453125,-1.109375q-3.234375,-1.046875 -5.125,-2.921875q-1.875,-1.890625 -2.5625,-4.5625q-0.671875,-2.6875 -0.671875,-6.046875l0,-46.3125l11.921875,-1.921875l0,45.84375q0,1.59375 0.234375,2.875q0.25,1.28125 0.921875,2.171875q0.6875,0.875 1.96875,1.4375q1.28125,0.546875 3.4375,0.703125l-1.671875,9.84375zm6.467483,-21.515625q0,-5.59375 1.71875,-9.796875q1.734375,-4.203125 4.53125,-7q2.796875,-2.796875 6.4375,-4.234375q3.640625,-1.453125 7.484375,-1.453125q8.953125,0 14.15625,5.484375q5.203125,5.484375 5.203125,16.125q0,1.03125 -0.09375,2.28125q-0.078125,1.234375 -0.15625,2.1875l-27.03125,0q0.390625,3.6875 3.421875,5.84375q3.046875,2.15625 8.171875,2.15625q3.28125,0 6.4375,-0.59375q3.171875,-0.59375 5.171875,-1.484375l1.59375,9.6875q-0.953125,0.46875 -2.5625,0.953125q-1.59375,0.484375 -3.5625,0.84375q-1.953125,0.359375 -4.203125,0.59375q-2.234375,0.25 -4.46875,0.25q-5.6875,0 -9.890625,-1.671875q-4.1875,-1.6875 -6.953125,-4.609375q-2.765625,-2.921875 -4.09375,-6.921875q-1.3125,-4 -1.3125,-8.640625zm28,-4.5625q-0.078125,-1.515625 -0.515625,-2.953125q-0.4375,-1.453125 -1.359375,-2.5625q-0.921875,-1.125 -2.328125,-1.84375q-1.390625,-0.71875 -3.46875,-0.71875q-2,0 -3.4375,0.6875q-1.4375,0.671875 -2.40625,1.796875q-0.953125,1.109375 -1.484375,2.59375q-0.515625,1.484375 -0.75,3l15.75,0zm20.719955,-15.359375q3.046875,-0.875 7.84375,-1.640625q4.796875,-0.765625 10.078125,-0.765625q5.359375,0 8.92186,1.40625q3.5625,1.40625 5.640625,3.96875q2.078125,2.546875 2.953125,6.078125q0.890625,3.515625 0.890625,7.828125l0,23.765625l-11.921875,0l0,-22.3125q0,-5.765625 -1.531234,-8.15625q-1.515625,-2.40625 -5.671875,-2.40625q-1.28125,0 -2.71875,0.125q-1.4375,0.109375 -2.5625,0.265625l0,32.484375l-11.921875,0l0,-40.640625l-0.000001,0zm46.729324,-11.921875l11.921875,-1.921875l0,12.40625l14.3125,0l0,9.921875l-14.3125,0l0,14.796875q0,3.765625 1.3125,6q1.328125,2.234375 5.328125,2.234375q1.921875,0 3.953125,-0.359375q2.046875,-0.359375 3.71875,-1l1.6875,9.28125q-2.171875,0.890625 -4.8125,1.515625q-2.625,0.640625 -6.46875,0.640625q-4.890625,0 -8.09375,-1.3125q-3.1875,-1.328125 -5.109375,-3.6875q-1.921875,-2.359375 -2.6875,-5.71875q-0.75,-3.359375 -0.75,-7.4375l0,-35.359375z" fill="#283343"/>
   <path id="svg_6" fill-rule="nonzero" d="m322.18423,33.87168q1.3125,-0.84375 3.984375,-1.765625q2.671875,-0.9375 6.140625,-0.9375q4.34375,0 7.703125,1.546875q3.359375,1.546875 5.671875,4.328125q2.328125,2.78125 3.53125,6.65625q1.203125,3.859375 1.203125,8.5q0,4.875 -1.4375,8.78125q-1.4375,3.90625 -4.0625,6.609375q-2.625,2.703125 -6.34375,4.171875q-3.703125,1.46875 -8.34375,1.46875q-5.03125,0 -8.90625,-0.703125q-3.859375,-0.6875 -6.328125,-1.375l0,-57.609375l7.1875,-1.234375l0,21.5625zm0,32.171875q1.078125,0.3125 3.046875,0.59375q1.984375,0.265625 4.921875,0.265625q5.796875,0 9.28125,-3.828125q3.484375,-3.828125 3.484375,-10.875q0,-3.09375 -0.625,-5.796875q-0.625,-2.703125 -2.015625,-4.671875q-1.390625,-1.984375 -3.59375,-3.09375q-2.203125,-1.125 -5.296875,-1.125q-2.9375,0 -5.421875,1.015625q-2.46875,1 -3.78125,2.078125l0,25.4375zm73.858826,-13.84375q0,4.796875 -1.40625,8.671875q-1.390625,3.859375 -3.90625,6.640625q-2.5,2.78125 -5.984375,4.296875q-3.484375,1.5 -7.578125,1.5q-4.09375,0 -7.578125,-1.5q-3.484375,-1.515625 -6,-4.296875q-2.5,-2.78125 -3.90625,-6.640625q-1.390625,-3.875 -1.390625,-8.671875q0,-4.71875 1.390625,-8.609375q1.40625,-3.90625 3.90625,-6.6875q2.515625,-2.796875 6,-4.296875q3.484375,-1.515625 7.578125,-1.515625q4.09375,0 7.578125,1.515625q3.484375,1.5 5.984375,4.296875q2.515625,2.78125 3.90625,6.6875q1.40625,3.890625 1.40625,8.609375zm-7.515625,0q0,-6.796875 -3.0625,-10.78125q-3.046875,-3.984375 -8.296875,-3.984375q-5.265625,0 -8.328125,3.984375q-3.046875,3.984375 -3.046875,10.78125q0,6.8125 3.046875,10.796875q3.0625,3.984375 8.328125,3.984375q5.25,0 8.296875,-3.984375q3.0625,-3.984375 3.0625,-10.796875zm31.248657,14.921875q2.546875,0 4.515625,-0.109375q1.984375,-0.109375 3.296875,-0.421875l0,-11.984375q-0.78125,-0.390625 -2.515625,-0.65625q-1.734375,-0.28125 -4.21875,-0.28125q-1.625,0 -3.4375,0.234375q-1.8125,0.234375 -3.328125,0.96875q-1.5,0.734375 -2.515625,2.015625q-1,1.265625 -1,3.359375q0,3.859375 2.46875,5.375q2.484375,1.5 6.734375,1.5zm-0.625,-36.03125q4.328125,0 7.3125,1.125q2.984375,1.125 4.796875,3.171875q1.8125,2.046875 2.578125,4.875q0.78125,2.8125 0.78125,6.21875l0,25.125q-0.921875,0.15625 -2.59375,0.4375q-1.65625,0.265625 -3.75,0.5q-2.078125,0.234375 -4.515625,0.421875q-2.4375,0.1875 -4.828125,0.1875q-3.40625,0 -6.265625,-0.703125q-2.859375,-0.6875 -4.953125,-2.1875q-2.09375,-1.515625 -3.25,-3.984375q-1.15625,-2.46875 -1.15625,-5.953125q0,-3.328125 1.34375,-5.71875q1.359375,-2.40625 3.671875,-3.875q2.328125,-1.46875 5.421875,-2.15625q3.09375,-0.703125 6.5,-0.703125q1.078125,0 2.234375,0.125q1.15625,0.109375 2.203125,0.3125q1.046875,0.1875 1.8125,0.34375q0.78125,0.15625 1.09375,0.21875l0,-2q0,-1.78125 -0.390625,-3.515625q-0.390625,-1.75 -1.390625,-3.09375q-1,-1.359375 -2.75,-2.171875q-1.734375,-0.8125 -4.515625,-0.8125q-3.5625,0 -6.234375,0.5q-2.65625,0.5 -3.984375,1.046875l-0.84375,-5.953125q1.390625,-0.625 4.640625,-1.203125q3.25,-0.578125 7.03125,-0.578125zm42.22467,0.15625q0.9375,0 2.125,0.125q1.203125,0.109375 2.359375,0.3125q1.15625,0.1875 2.125,0.375q0.96875,0.1875 1.4375,0.34375l-1.234375,6.265625q-0.859375,-0.3125 -2.828125,-0.734375q-1.96875,-0.421875 -5.0625,-0.421875q-2.015625,0 -3.984375,0.421875q-1.96875,0.421875 -2.59375,0.578125l0,33.796875l-7.1875,0l0,-38.515625q2.546875,-0.921875 6.328125,-1.734375q3.796875,-0.8125 8.515625,-0.8125zm40.98932,9.359375q-1.3125,-1.078125 -3.796875,-2.078125q-2.46875,-1.015625 -5.40625,-1.015625q-3.09375,0 -5.296875,1.125q-2.203125,1.109375 -3.59375,3.09375q-1.390625,1.96875 -2.015625,4.671875q-0.625,2.703125 -0.625,5.796875q0,7.046875 3.484375,10.875q3.484375,3.828125 9.28125,3.828125q2.9375,0 4.90625,-0.265625q1.984375,-0.28125 3.0625,-0.59375l0,-25.4375zm0,-27.0625l7.1875,-1.234375l0,58.84375q-2.46875,0.6875 -6.34375,1.375q-3.859375,0.703125 -8.890625,0.703125q-4.640625,0 -8.359375,-1.46875q-3.703125,-1.46875 -6.328125,-4.171875q-2.625,-2.703125 -4.0625,-6.609375q-1.4375,-3.90625 -1.4375,-8.78125q0,-4.640625 1.203125,-8.5q1.203125,-3.875 3.515625,-6.65625q2.328125,-2.78125 5.6875,-4.328125q3.359375,-1.546875 7.6875,-1.546875q3.484375,0 6.15625,0.9375q2.671875,0.921875 3.984375,1.765625l0,-20.328125z" fill="#283343"/>
   <path id="svg_7" fill-rule="evenodd" d="m3.721103,22.020998l29.19685,0l0,63.968506l-29.19685,0l0,-63.968506z" fill="#0283fe"/>
   <path id="svg_8" fill-rule="evenodd" d="m37.719162,6.021572l29.196846,0l0,63.968502l-29.196846,0l0,-63.968502z" fill="#2fb9fe"/>
  </g>
 </g>
</svg>