<svg width="550" height="95" xmlns="http://www.w3.org/2000/svg">
 <clipPath id="p.0">
  <path id="svg_1" clip-rule="nonzero" d="m0,0l1280,0l0,960l-1280,0l0,-960z"/>
 </clipPath>

 <g>
  <title>background</title>
  <rect fill="none" id="canvas_background" height="97" width="552" y="-1" x="-1"/>
 </g>
 <g>
  <title>Layer 1</title>
  <g id="svg_2" clip-path="url(#p.0)">
   <path id="svg_3" fill-rule="evenodd" d="m-6,-9l1280,0l0,960l-1280,0l0,-960z" fill-opacity="0" fill="#000000"/>
   <path id="svg_4" fill-rule="evenodd" d="m448,8.75344l0,0c0,-4.49084 3.64056,-8.13139 8.13141,-8.13139l82.63483,0c2.15662,0 4.22485,0.8567 5.74976,2.38163c1.52496,1.52493 2.38165,3.59318 2.38165,5.74976l0,32.52462c0,4.49084 -3.64057,8.13139 -8.13141,8.13139l-82.63483,0c-4.49085,0 -8.13141,-3.64055 -8.13141,-8.13139l0,-32.52462z" fill="#0283fe"/>
   <path id="svg_5" fill-rule="evenodd" d="m-6.00044,-5.99869l470.58267,0l0,118.99213l-470.58267,0l0,-118.99213z" fill-opacity="0" fill="#000000"/>
   <path id="svg_6" fill-rule="nonzero" d="m8.20269,27.23881l11.92187,-1.92188l0,12.40625l14.3125,0l0,9.92188l-14.3125,0l0,14.79687q0,3.76563 1.3125,6q1.32813,2.23438 5.32813,2.23438q1.92187,0 3.95312,-0.35938q2.04688,-0.35937 3.71875,-1l1.6875,9.28125q-2.17187,0.89063 -4.8125,1.51563q-2.625,0.64062 -6.46875,0.64062q-4.89062,0 -8.09375,-1.3125q-3.1875,-1.32812 -5.10937,-3.6875q-1.92188,-2.35937 -2.6875,-5.71875q-0.75,-3.35937 -0.75,-7.4375l0,-35.35937zm52.00435,44.25q1.75,0 3.34375,-0.07813q1.60938,-0.09375 2.5625,-0.25l0,-9.04687q-0.71875,-0.15625 -2.15625,-0.3125q-1.4375,-0.15625 -2.64062,-0.15625q-1.67188,0 -3.15625,0.20312q-1.48438,0.1875 -2.60938,0.75q-1.10938,0.5625 -1.75,1.53125q-0.64063,0.95313 -0.64063,2.39063q0,2.79687 1.875,3.89062q1.89063,1.07813 5.17188,1.07813zm-0.96875,-34.89063q5.28125,0 8.79688,1.20313q3.53125,1.20312 5.64062,3.45312q2.125,2.23438 3,5.4375q0.89063,3.1875 0.89063,7.10938l0,24.79687q-2.5625,0.5625 -7.125,1.3125q-4.5625,0.76563 -11.04688,0.76563q-4.07813,0 -7.40625,-0.71875q-3.3125,-0.71875 -5.71875,-2.35938q-2.39063,-1.64062 -3.67188,-4.28125q-1.28125,-2.64062 -1.28125,-6.46875q0,-3.6875 1.48438,-6.25q1.48437,-2.5625 3.95312,-4.07812q2.48438,-1.51563 5.6875,-2.1875q3.20313,-0.6875 6.64063,-0.6875q2.3125,0 4.10938,0.20312q1.8125,0.1875 2.92187,0.51563l0,-1.125q0,-3.03125 -1.84375,-4.875q-1.82812,-1.84375 -6.39063,-1.84375q-3.04687,0 -6,0.4375q-2.95312,0.4375 -5.125,1.25l-1.51562,-9.60938q1.04687,-0.3125 2.59375,-0.67187q1.5625,-0.35938 3.40625,-0.64063q1.84375,-0.28125 3.875,-0.48437q2.04687,-0.20313 4.125,-0.20313zm45.92746,44q-5.20312,-0.07812 -8.45312,-1.10937q-3.23438,-1.04688 -5.125,-2.92188q-1.875,-1.89062 -2.5625,-4.5625q-0.67188,-2.6875 -0.67188,-6.04687l0,-46.3125l11.92188,-1.92188l0,45.84375q0,1.59375 0.23437,2.875q0.25,1.28125 0.92188,2.17188q0.6875,0.875 1.96875,1.4375q1.28125,0.54687 3.4375,0.70312l-1.67188,9.84375zm6.46748,-21.51562q0,-5.59375 1.71875,-9.79688q1.73438,-4.20312 4.53125,-7q2.79688,-2.79687 6.4375,-4.23437q3.64062,-1.45313 7.48437,-1.45313q8.95313,0 14.15625,5.48438q5.20313,5.48437 5.20313,16.125q0,1.03125 -0.09375,2.28125q-0.07813,1.23437 -0.15625,2.1875l-27.03125,0q0.39062,3.6875 3.42187,5.84375q3.04688,2.15625 8.17188,2.15625q3.28125,0 6.4375,-0.59375q3.17187,-0.59375 5.17187,-1.48438l1.59375,9.6875q-0.95312,0.46875 -2.5625,0.95313q-1.59375,0.48437 -3.5625,0.84375q-1.95312,0.35937 -4.20312,0.59375q-2.23438,0.25 -4.46875,0.25q-5.6875,0 -9.89063,-1.67188q-4.18749,-1.6875 -6.95312,-4.60937q-2.76562,-2.92188 -4.09375,-6.92188q-1.3125,-4 -1.3125,-8.64062zm28,-4.5625q-0.07813,-1.51563 -0.51563,-2.95313q-0.4375,-1.45312 -1.35937,-2.5625q-0.92188,-1.125 -2.32813,-1.84375q-1.39062,-0.71875 -3.46875,-0.71875q-2,0 -3.4375,0.6875q-1.4375,0.67188 -2.40625,1.79688q-0.95312,1.10937 -1.48437,2.59375q-0.51563,1.48437 -0.75,3l15.75,0zm20.71995,-15.35938q3.04688,-0.875 7.84375,-1.64062q4.79688,-0.76563 10.07813,-0.76563q5.35937,0 8.92187,1.40625q3.5625,1.40625 5.64063,3.96875q2.07812,2.54688 2.95312,6.07813q0.89063,3.51562 0.89063,7.82812l0,23.76563l-11.92188,0l0,-22.3125q0,-5.76563 -1.53125,-8.15625q-1.51562,-2.40625 -5.67187,-2.40625q-1.28125,0 -2.71875,0.125q-1.4375,0.10937 -2.5625,0.26562l0,32.48438l-11.92188,0l0,-40.64063zm46.72932,-11.92187l11.92188,-1.92188l0,12.40625l14.3125,0l0,9.92188l-14.3125,0l0,14.79687q0,3.76563 1.3125,6q1.32812,2.23438 5.32812,2.23438q1.92188,0 3.95313,-0.35938q2.04687,-0.35937 3.71875,-1l1.6875,9.28125q-2.17188,0.89063 -4.8125,1.51563q-2.625,0.64062 -6.46875,0.64062q-4.89063,0 -8.09375,-1.3125q-3.1875,-1.32812 -5.10938,-3.6875q-1.92187,-2.35937 -2.6875,-5.71875q-0.75,-3.35937 -0.75,-7.4375l0,-35.35937z" fill="#ffffff"/>
   <path id="svg_7" fill-rule="nonzero" d="m250.77435,41.36381q1.3125,-0.84375 3.98438,-1.76563q2.67187,-0.9375 6.14062,-0.9375q4.34375,0 7.70313,1.54688q3.35937,1.54687 5.67187,4.32812q2.32813,2.78125 3.53125,6.65625q1.20313,3.85938 1.20313,8.5q0,4.875 -1.4375,8.78125q-1.4375,3.90625 -4.0625,6.60938q-2.625,2.70312 -6.34375,4.17187q-3.70313,1.46875 -8.34375,1.46875q-5.03125,0 -8.90625,-0.70312q-3.85938,-0.6875 -6.32813,-1.375l0,-57.60938l7.1875,-1.23437l0,21.5625zm0,32.17187q1.07813,0.3125 3.04688,0.59375q1.98437,0.26563 4.92187,0.26563q5.79688,0 9.28125,-3.82813q3.48438,-3.82812 3.48438,-10.875q0,-3.09375 -0.625,-5.79687q-0.625,-2.70313 -2.01563,-4.67188q-1.39062,-1.98437 -3.59375,-3.09375q-2.20312,-1.125 -5.29687,-1.125q-2.9375,0 -5.42188,1.01563q-2.46875,1 -3.78125,2.07812l0,25.4375zm73.85883,-13.84375q0,4.79688 -1.40625,8.67188q-1.39063,3.85937 -3.90625,6.64062q-2.5,2.78125 -5.98438,4.29688q-3.48437,1.5 -7.57812,1.5q-4.09375,0 -7.57813,-1.5q-3.48437,-1.51563 -6,-4.29688q-2.5,-2.78125 -3.90625,-6.64062q-1.39062,-3.875 -1.39062,-8.67188q0,-4.71875 1.39062,-8.60937q1.40625,-3.90625 3.90625,-6.6875q2.51563,-2.79688 6,-4.29688q3.48438,-1.51562 7.57813,-1.51562q4.09375,0 7.57812,1.51562q3.48438,1.5 5.98438,4.29688q2.51562,2.78125 3.90625,6.6875q1.40625,3.89062 1.40625,8.60937zm-7.51563,0q0,-6.79687 -3.0625,-10.78125q-3.04687,-3.98437 -8.29687,-3.98437q-5.26563,0 -8.32813,3.98437q-3.04687,3.98438 -3.04687,10.78125q0,6.8125 3.04687,10.79688q3.0625,3.98437 8.32813,3.98437q5.25,0 8.29687,-3.98437q3.0625,-3.98438 3.0625,-10.79688zm31.24866,14.92188q2.54687,0 4.51562,-0.10938q1.98438,-0.10937 3.29688,-0.42187l0,-11.98438q-0.78125,-0.39062 -2.51563,-0.65625q-1.73437,-0.28125 -4.21875,-0.28125q-1.625,0 -3.4375,0.23438q-1.8125,0.23437 -3.32812,0.96875q-1.5,0.73437 -2.51563,2.01562q-1,1.26563 -1,3.35938q0,3.85937 2.46875,5.375q2.48438,1.5 6.73438,1.5zm-0.625,-36.03125q4.32812,0 7.3125,1.125q2.98437,1.125 4.79687,3.17187q1.8125,2.04688 2.57813,4.875q0.78125,2.8125 0.78125,6.21875l0,25.125q-0.92188,0.15625 -2.59375,0.4375q-1.65625,0.26563 -3.75,0.5q-2.07813,0.23438 -4.51563,0.42188q-2.4375,0.1875 -4.82812,0.1875q-3.40625,0 -6.26563,-0.70313q-2.85937,-0.6875 -4.95312,-2.1875q-2.09375,-1.51562 -3.25,-3.98437q-1.15625,-2.46875 -1.15625,-5.95313q0,-3.32812 1.34375,-5.71875q1.35937,-2.40625 3.67187,-3.875q2.32813,-1.46875 5.42188,-2.15625q3.09375,-0.70312 6.5,-0.70312q1.07812,0 2.23437,0.125q1.15625,0.10937 2.20313,0.3125q1.04687,0.1875 1.8125,0.34375q0.78125,0.15625 1.09375,0.21875l0,-2q0,-1.78125 -0.39063,-3.51563q-0.39062,-1.75 -1.39062,-3.09375q-1,-1.35937 -2.75,-2.17187q-1.73438,-0.8125 -4.51563,-0.8125q-3.5625,0 -6.23437,0.5q-2.65625,0.5 -3.98438,1.04687l-0.84375,-5.95312q1.39063,-0.625 4.64063,-1.20313q3.25,-0.57812 7.03125,-0.57812zm42.22467,0.15625q0.9375,0 2.125,0.125q1.20312,0.10937 2.35937,0.3125q1.15625,0.1875 2.125,0.375q0.96875,0.1875 1.4375,0.34375l-1.23437,6.26562q-0.85938,-0.3125 -2.82813,-0.73437q-1.96875,-0.42188 -5.0625,-0.42188q-2.01562,0 -3.98437,0.42188q-1.96875,0.42187 -2.59375,0.57812l0,33.79688l-7.1875,0l0,-38.51563q2.54687,-0.92187 6.32812,-1.73437q3.79688,-0.8125 8.51563,-0.8125zm40.98932,9.35937q-1.3125,-1.07812 -3.79688,-2.07812q-2.46875,-1.01563 -5.40625,-1.01563q-3.09375,0 -5.29687,1.125q-2.20313,1.10938 -3.59375,3.09375q-1.39063,1.96875 -2.01563,4.67188q-0.625,2.70312 -0.625,5.79687q0,7.04688 3.48438,10.875q3.48437,3.82813 9.28125,3.82813q2.9375,0 4.90625,-0.26563q1.98437,-0.28125 3.0625,-0.59375l0,-25.4375zm0,-27.0625l7.1875,-1.23437l0,58.84375q-2.46875,0.6875 -6.34375,1.375q-3.85938,0.70312 -8.89063,0.70312q-4.64062,0 -8.35937,-1.46875q-3.70313,-1.46875 -6.32813,-4.17187q-2.625,-2.70313 -4.0625,-6.60938q-1.4375,-3.90625 -1.4375,-8.78125q0,-4.64062 1.20313,-8.5q1.20312,-3.875 3.51562,-6.65625q2.32813,-2.78125 5.6875,-4.32812q3.35938,-1.54688 7.6875,-1.54688q3.48438,0 6.15625,0.9375q2.67188,0.92188 3.98438,1.76563l0,-20.32813z" fill="#ffffff"/>
   <path id="svg_8" fill-rule="evenodd" d="m441.55585,-8.99912l135.21259,0l0,63.9685l-135.21259,0l0,-63.9685z" fill-opacity="0" fill="#000000"/>
   <path id="svg_9" fill-rule="nonzero" d="m454.47772,11.99462l10.39062,0q4.64063,0 6.90625,1.89063q2.26563,1.875 2.26563,5.35937q0,2.15625 -1.25,3.76563q-1.23438,1.59375 -3.46875,1.98437l0,0.04688q2.46875,0.40625 3.92187,2.09375q1.46875,1.67187 1.46875,3.95312q0,3.4375 -2.51562,5.375q-2.51563,1.9375 -7.15625,1.9375l-10.5625,0l0,-26.40625zm10.07812,11.35938q5.04688,0 5.04688,-3.875q0,-3.875 -5.04688,-3.875l-5.875,0l0,7.75l5.875,0zm0.6875,11.48437q2.46875,0 3.75,-1.01562q1.28125,-1.01563 1.28125,-2.9375q0,-1.92188 -1.28125,-2.9375q-1.28125,-1.03125 -3.75,-1.03125l-6.5625,0l0,7.92187l6.5625,0zm32.99561,-7.03125q0,1.15625 -0.15625,2.1875l-14.64063,0q0.35938,2.64063 1.875,4.03125q1.51563,1.375 3.92188,1.375q1.95312,0 3.25,-0.70312q1.3125,-0.70313 1.78125,-2.01563l3.5625,1.48438q-2.23438,4.64062 -8.59375,4.64062q-4.71875,0 -7.39063,-2.76562q-2.65625,-2.76563 -2.65625,-7.64063q0,-4.92187 2.5625,-7.65625q2.5625,-2.75 7.20313,-2.75q4.39062,0 6.82812,2.6875q2.45313,2.67188 2.45313,7.125zm-9.28125,-6.40625q-2.32813,0 -3.75,1.35938q-1.40625,1.35937 -1.76563,3.95312l10.79688,0q-0.32813,-2.51562 -1.70313,-3.90625q-1.375,-1.40625 -3.57812,-1.40625zm27.59936,15.6875q-0.96875,0.79688 -2.34375,1.26563q-1.375,0.45312 -2.98437,0.45312q-2.75,0 -4.42188,-1.375q-1.65628,-1.39062 -1.68753,-4.3125l0,-11.35937l-3.79687,0l0,-3.35938l3.79687,0l0,-4.6875l4.28128,-1.1875l0,5.875l7,0l0,3.35938l-7,0l0,10.64062q0,1.4375 0.78125,2.14063q0.78125,0.70312 2.14063,0.70312q1.82812,0 3.23437,-1.28125l1,3.125zm21.27246,-1.48437q0.89063,0 1.48438,-0.15625l-0.28125,2.875q-1.07813,0.48437 -2.48438,0.48437q-1.71875,0 -2.73437,-0.67187q-1.01563,-0.6875 -1.34375,-2.29688q-0.92188,1.40625 -2.71875,2.1875q-1.79688,0.78125 -4.03125,0.78125q-2.92188,0 -4.73438,-1.35937q-1.79687,-1.35938 -1.79687,-3.89063q0,-2.35937 1.95312,-3.96875q1.96875,-1.625 5.85938,-2.3125l5.07812,-0.875l0,-1.07812q0,-1.84375 -1.07812,-2.90625q-1.07813,-1.0625 -3,-1.0625q-3.96875,0 -5.17188,3.60937l-3.3125,-1.76562q0.71875,-2.39063 2.9375,-3.79688q2.21875,-1.40625 5.46875,-1.40625q3.875,0 6.15625,1.8125q2.28125,1.79688 2.28125,5.28125l0,9.03125q0,0.76563 0.32813,1.125q0.34375,0.35938 1.14062,0.35938zm-11.1875,-0.04688q2.15625,0 3.79688,-1.03125q1.64062,-1.04687 1.64062,-2.76562l0,-2.40625l-4.35937,0.89062q-2.07813,0.39063 -3.07813,1.125q-1,0.71875 -1,1.90625q0,1.125 0.76563,1.70313q0.78125,0.57812 2.23437,0.57812z" fill="#ffffff"/>
  </g>
 </g>
</svg>